<svg xmlns="http://www.w3.org/2000/svg" xmlns:xlink="http://www.w3.org/1999/xlink" width="500" zoomAndPan="magnify" viewBox="0 0 375 374.999991" height="500" preserveAspectRatio="xMidYMid meet" version="1.0"><defs><g/></defs><g fill="#38b6ff" fill-opacity="1"><g transform="translate(48.990476, 302.828995)"><g><path d="M 74.0625 -218.765625 L 74.0625 -72.8125 C 74.0625 -56.769531 80.316406 -48.75 92.828125 -48.75 C 105.328125 -48.75 111.578125 -56.769531 111.578125 -72.8125 L 111.578125 -218.765625 L 165.953125 -218.765625 L 165.953125 -72.8125 C 165.953125 -56.769531 172.203125 -48.75 184.703125 -48.75 C 197.203125 -48.75 203.453125 -56.769531 203.453125 -72.8125 L 203.453125 -218.765625 L 257.84375 -218.765625 L 257.84375 -63.4375 C 257.84375 -53.851562 256.28125 -45 253.15625 -36.875 C 250.03125 -28.75 245.441406 -21.664062 239.390625 -15.625 C 233.347656 -9.582031 225.898438 -4.84375 217.046875 -1.40625 C 208.191406 2.03125 198.035156 3.75 186.578125 3.75 C 177.203125 3.75 168.191406 2.082031 159.546875 -1.25 C 150.898438 -4.582031 143.972656 -10 138.765625 -17.5 C 133.554688 -10 126.628906 -4.582031 117.984375 -1.25 C 109.335938 2.082031 100.328125 3.75 90.953125 3.75 C 79.691406 3.75 69.632812 2.082031 60.78125 -1.25 C 51.925781 -4.582031 44.425781 -9.269531 38.28125 -15.3125 C 32.132812 -21.351562 27.5 -28.4375 24.375 -36.5625 C 21.25 -44.6875 19.6875 -53.644531 19.6875 -63.4375 L 19.6875 -218.765625 Z M 74.0625 -218.765625 "/></g></g></g><path fill="#38b6ff" d="M 187.5 375 C 83.910156 375 0 290.507812 0 187.5 C 0 84.492188 83.910156 0 187.5 0 C 291.089844 0 375 83.910156 375 187.5 C 375 291.089844 290.507812 375 187.5 375 Z M 187.5 11.574219 C 90.277344 11.574219 11.574219 90.277344 11.574219 187.5 C 11.574219 284.722656 90.277344 363.425781 187.5 363.425781 C 284.722656 363.425781 363.425781 284.722656 363.425781 187.5 C 363.425781 90.277344 284.144531 11.574219 187.5 11.574219 Z M 187.5 11.574219 " fill-opacity="1" fill-rule="nonzero"/></svg>